<svg xmlns="http://www.w3.org/2000/svg" style="display: none;"><symbol id="circle" viewBox="0 0 510 510"><title>circle</title><path d="M280.5,127.5h-51v102h-102v51h102v102h51v-102h102v-51h-102V127.5z M255,0C114.75,0,0,114.75,0,255s114.75,255,255,255 s255-114.75,255-255S395.25,0,255,0z M255,459c-112.2,0-204-91.8-204-204S142.8,51,255,51s204,91.8,204,204S367.2,459,255,459z"/></symbol><symbol id="close-button" viewBox="0 0 357 357"><title>close-button</title><polygon points="357,35.7 321.3,0 178.5,142.8 35.7,0 0,35.7 142.8,178.5 0,321.3 35.7,357 178.5,214.2 321.3,357 357,321.3 214.2,178.5 "/></symbol><symbol id="people" viewBox="0 0 561 561"><title>people</title><path d="M357,280.5c56.1,0,102-45.9,102-102s-45.9-102-102-102s-102,45.9-102,102S300.9,280.5,357,280.5z M127.5,229.5V153h-51 v76.5H0v51h76.5V357h51v-76.5H204v-51H127.5z M357,331.5c-68.85,0-204,33.15-204,102v51h408v-51 C561,364.65,425.85,331.5,357,331.5z"/></symbol><symbol id="round" viewBox="0 0 510 510"><title>round</title><path d="M127.5,229.5v51h255v-51H127.5z M255,0C114.75,0,0,114.75,0,255s114.75,255,255,255s255-114.75,255-255S395.25,0,255,0z M255,459c-112.2,0-204-91.8-204-204S142.8,51,255,51s204,91.8,204,204S367.2,459,255,459z"/></symbol><symbol id="social" viewBox="0 0 612 612"><title>social</title><path d="M204,267.75h-76.5v-76.5h-51v76.5H0v51h76.5v76.5h51v-76.5H204V267.75z M459,293.25c43.35,0,76.5-33.15,76.5-76.5 s-33.15-76.5-76.5-76.5c-7.65,0-15.3,2.55-22.95,2.55c15.3,22.95,22.95,45.9,22.95,73.95s-7.65,51-22.95,73.95 C443.7,290.7,451.35,293.25,459,293.25z M331.5,293.25c43.35,0,76.5-33.15,76.5-76.5s-33.15-76.5-76.5-76.5 c-43.35,0-76.5,33.15-76.5,76.5S288.15,293.25,331.5,293.25z M499.8,349.35c20.4,17.851,35.7,43.351,35.7,71.4v51H612v-51 C612,382.5,550.8,357,499.8,349.35z M331.5,344.25c-51,0-153,25.5-153,76.5v51h306v-51C484.5,369.75,382.5,344.25,331.5,344.25z"/></symbol><symbol id="tick-inside-circle" viewBox="0 0 510 510"><title>tick-inside-circle</title><path d="M150.45,206.55l-35.7,35.7L229.5,357l255-255l-35.7-35.7L229.5,285.6L150.45,206.55z M459,255c0,112.2-91.8,204-204,204 S51,367.2,51,255S142.8,51,255,51c20.4,0,38.25,2.55,56.1,7.65l40.801-40.8C321.3,7.65,288.15,0,255,0C114.75,0,0,114.75,0,255 s114.75,255,255,255s255-114.75,255-255H459z"/></symbol></svg>